<svg id="Layer_3" data-name="Layer 3" xmlns="http://www.w3.org/2000/svg" viewBox="0 0 70 70">
  <g id="color_0" data-name="color 0" vector-effect="non-scaling-stroke">
    <g>
      <polygon fill="#fff" points="35.59 56.35 32.01 53.71 28.36 54.3 18.96 53.53 9.35 47.64 7.05 37.29 10.6 32.45 9.4 30.61 9.68 25.4 11.88 20.13 17.18 14.22 23.73 11.18 32.65 12.47 36.43 14.82 39.51 13.61 48.08 13.21 55.07 15.55 59.9 19.94 62.86 25.64 62.86 30.04 60.82 35.48 59.47 36.95 60.08 38.36 60.51 45.19 56.64 55.08 49.89 58.58 42.3 58.79 35.59 56.35"/>
      <path d="M23.9,12.34l8.36,1.21,4.06,2.53,3.44-1.35,8.17-.38,6.57,2.19,4.5,4.1,2.75,5.28v3.92l-1.89,5.04-1.7,1.85.82,1.9.41,6.38-3.62,9.26-6.15,3.19-7.11.2-6.36-2.31-3.83-2.82-3.99.64-9-.74-8.97-5.5-2.09-9.39,3.7-5.05-1.42-2.18.25-4.65,2.05-4.92,5.02-5.6,6.03-2.8M23.56,10.02l-.61.28-6.03,2.8-.42.19-.31.34-5.02,5.6-.25.28-.15.35-2.05,4.92-.15.36-.02.39-.25,4.65-.04.73.4.61.57.88-2.78,3.8-.6.82.22.99,2.09,9.39.21.93.81.5,8.97,5.5.46.28.53.04,9,.74.27.02.27-.04,3.05-.49,3.07,2.26.26.19.3.11,6.36,2.31.4.15h.43s7.11-.21,7.11-.21h.51s.46-.25.46-.25l6.15-3.19.75-.39.31-.79,3.62-9.26.18-.46-.03-.5-.41-6.38-.02-.39-.15-.36-.24-.57.71-.78.3-.32.15-.41,1.89-5.04.14-.38v-4.88l-.25-.49-2.75-5.28-.19-.36-.3-.27-4.5-4.1-.35-.32-.45-.15-6.57-2.19-.4-.13-.42.02-8.17.38-.37.02-.35.14-2.39.94-3.1-1.93-.4-.25-.47-.07-8.36-1.21-.66-.1h0Z"/>
    </g>
    <path fill="#c0914d" d="M19.91,17.91l-4.17,4.66-1.61,3.85-.16,2.97,2.09,3.21-4.17,5.7,1.45,6.5,7.06,4.34,7.79.64,4.98-.8,4.58,3.37,5.3,1.93,5.7-.16,4.34-2.25,2.89-7.39-.32-5.06-1.45-3.37,2.73-2.97,1.45-3.85v-2.49l-2.09-4.01-3.53-3.21-5.3-1.77-6.98.32-4.5,1.77-4.9-3.05-6.66-.96-4.5,2.09ZM51.86,42.47l-.48,5.06-4.26,2.97h-3.93l-6.34-3.77,12.12-7.39,2.89,3.13ZM53.31,28.5l-.64,3.77-3.93,3.93-17.5,8.83-8.27.16-3.85-2.09-2.17-2.65.48-4.26,5.54-4.9,4.74.64,5.14,2.25-4.98-5.7,5.7-2.97,5.38,2.41-2.41-3.13,2.81-1.53h8.27l3.53,1.93,2.17,3.29ZM31.31,23.04l-10.84,7.23-1.61-.56-.32-4.26,2.17-2.81,6.02-1.45,4.58,1.85Z"/>
  </g>
</svg>