<svg id="Layer_3" data-name="Layer 3" xmlns="http://www.w3.org/2000/svg" viewBox="0 0 70 70">
  <g id="color_0" data-name="color 0" vector-effect="non-scaling-stroke">
    <g>
      <polygon fill="#fff" points="10.95 47.73 16.08 44.43 18.93 44.08 18.93 43.85 7.27 30.33 7.65 24.03 4.47 14.93 7.51 8.08 12.41 5.98 18.93 6.53 24.71 12.23 30.75 13.02 32.44 17.37 66.85 21.98 40.82 45.91 44.14 49.23 44.75 62.26 10.66 64.02 10.95 47.73"/>
      <path d="M12.6,7.12l5.83.5,5.76,5.68,5.75.75,1.69,4.34,32.69,4.38-25.81,23.72,1.51.21,3.01,3.01.54,11.48-31.77,1.65.26-14.49,4.41-2.83,3.59-.45v-1.63l-11.64-13.49.36-6.07-3.11-8.89,2.69-6.04,4.24-1.82M12.23,4.83l-.52.22-4.24,1.82-.81.35-.36.81-2.69,6.04-.36.81.29.84,2.96,8.47-.34,5.62-.05.91.6.69,10.17,11.79-.69.09-.51.06-.43.28-4.41,2.83-1.01.65-.02,1.2-.26,14.49-.04,2.41,2.41-.12,31.77-1.65,2.23-.12-.11-2.23-.54-11.48-.04-.87-.61-.62-2.18-2.18,23.4-21.51,3.53-3.25-4.75-.64-31.38-4.21-1.21-3.1-.48-1.24-1.32-.17-5.01-.66-5.22-5.15-.58-.57-.81-.07-5.83-.5-.56-.05h0Z"/>
    </g>
    <path fill="#87b100" d="M10.9,11.52l-1.61,3.61,2.89,8.27-.32,5.38,11.56,13.41v5.86l-5.78.72-2.25,1.45-.16,9.07,24.81-1.28-.32-6.82-1.28-1.28-4.01-.56.48-4.09,21.84-20.07-27.54-3.69-1.69-4.34-4.9-.64-5.7-5.62-3.77-.32-2.25.96ZM14.6,14.81l4.5,5.14h3.13l2.49,1.85.16,3.77,20.87,2.17-15.09,13.81-.32,11.8,4.9.16.48,1.85-16.86.24,2.33-2.25,5.54-.16.8-12.6-10.76-13.89v-4.74l-1.93-3.77-.24-3.37Z"/>
  </g>
</svg>