<svg id="Layer_3" data-name="Layer 3" xmlns="http://www.w3.org/2000/svg" viewBox="0 0 70 70">
  <g id="color_0" data-name="color 0" vector-effect="non-scaling-stroke">
    <g>
      <polygon fill="#fff" points="21.3 61.66 14.06 58.26 7.84 49.35 6.91 35.6 9.16 26.38 13.19 22.69 13.34 22.67 13.57 17.06 16.91 11.16 25.07 7.41 30.21 7.41 34.21 9.01 42.44 7.47 47.81 14.33 48.28 18.89 49.67 18.74 57.55 21.06 61.84 27.51 63.09 33.96 62.36 44.15 59.34 51.8 51.01 55.5 47.85 55.5 45.34 59.16 36.87 61.85 30.42 62.59 21.3 61.66"/>
      <path d="M29.99,8.54l4.11,1.64,7.87-1.48,4.75,6.07.55,5.35,2.29-.24,7.27,2.14,3.95,5.92,1.18,6.08-.71,9.87-2.78,7.06-7.7,3.42h-3.51l-2.62,3.83-8,2.54-6.23.72-8.81-.9-6.79-3.2-5.87-8.41-.9-13.26,2.13-8.73,3.5-3.21,1.08-.11-.3-.5.24-5.78,3.02-5.35,7.6-3.49h4.68M42.9,6.24l-1.34.25-7.23,1.36-3.5-1.4-.4-.16h-5.6l-.45.21-7.6,3.49-.66.3-.36.63-3.02,5.35-.27.47-.02.54-.19,4.73-.09.09-3.5,3.21-.5.46-.16.66-2.13,8.73-.08.34.02.35.9,13.26.04.62.36.51,5.87,8.41.34.49.54.26,6.79,3.2.35.16.38.04,8.81.9.24.02.24-.03,6.23-.72.21-.02.21-.07,8-2.54.74-.23.44-.64,1.95-2.85h2.81l.44-.19,7.7-3.42.84-.37.34-.86,2.78-7.06.13-.32.02-.34.71-9.87.02-.3-.06-.29-1.18-6.08-.09-.44-.25-.38-3.95-5.92-.45-.68-.78-.23-7.27-2.14-.43-.13-.44.05h-.05s-.32-3.11-.32-3.11l-.07-.65-.4-.51-4.75-6.07-.84-1.08h0Z"/>
    </g>
    <path fill="#c75055" d="M48.61,33.91l-4.58-.16-1.93,2.25.8,3.29,2.81.64,1.93-.8,1.45-2.09-.48-3.13ZM20.11,14.64l-2.09,3.69-.16,3.93,2.57,4.17-5.3.56-1.93,1.77-1.77,7.23.8,11.8,4.82,6.9,5.46,2.57,7.87.8,5.54-.64,6.58-2.09,2.97-4.34h4.58l5.78-2.57,2.09-5.3.64-8.91-.96-4.98-2.89-4.34-5.46-1.61-4.58.48-2.49-2.81,1.61-1.77-.32-3.13-2.89-3.69-6.82,1.28-4.42-1.77h-3.29l-5.94,2.73ZM53.51,32.78l.48,5.86-1.28,4.5-3.29,1.85-5.54-.64-1.28,4.74-4.26,3.29-4.66.96-9.39-.64-4.34-2.25-2.81-4.58v-9.23l1.61-4.01,2.17-1.69,20.15.64,6.9-2.25,3.85,1.28,1.69,2.17ZM25.57,16.48l3.77-.32,1.69,1.2-.72,1.93-3.13,1.45.48,1.36,3.37,2.01-.08,3.85h-5.38l1.53-2.73-4.66-3.77.96-3.45,2.17-1.53ZM37.29,15.52l3.37,1.36-.88,2.09-3.93,1.45,6.1,4.98v2.65l-2.17,1.04-4.26-.64-.56-.8,2.25-.24-.16-1.36-4.98-4.42.8-3.29,4.42-2.81Z"/>
  </g>
</svg>