<svg id="Layer_3" data-name="Layer 3" xmlns="http://www.w3.org/2000/svg" viewBox="0 0 70 70">
  <g id="color_0" data-name="color 0" vector-effect="non-scaling-stroke">
    <g>
      <polygon fill="#fff" points="30.19 62.38 24.83 60.28 23.49 58.68 20.41 58.79 5.82 53.51 23.9 10.79 29.53 6.82 41 10.6 41.74 14.41 45.64 12.39 54.76 15.48 54.76 27.97 59.6 30.24 60.05 32.9 62.28 33.81 63.83 38.84 62.54 49.76 58.4 50.7 56.26 53.96 52.26 54.49 51.56 56.99 43.66 58.19 38.15 63.1 30.19 62.38"/>
      <path d="M29.71,8.07l10.31,3.4.72,3.68.97.54,4.01-2.08,7.9,2.68v12.4l4.95,2.33.46,2.7,2.31.94,1.32,4.3-1.16,9.89-3.81.87-2.11,3.21-4.22.55-.71,2.52-7.51,1.14-5.4,4.8-7.31-.65-4.95-1.94-1.5-1.8-3.42.12-13.27-4.81L24.81,11.53l4.9-3.46M29.34,5.58l-.92.65-4.9,3.46-.52.37-.25.59L5.24,51.98l-.92,2.18,2.23.81,13.27,4.81.41.15.44-.02,2.31-.08.8.96.37.44.54.21,4.95,1.94.3.12.32.03,7.31.65.97.09.73-.65,4.9-4.36,6.85-1.04,1.43-.22.39-1.4.31-1.09,2.75-.36,1.02-.13.57-.86,1.61-2.45,2.93-.67,1.55-.35.19-1.58,1.16-9.89.06-.47-.14-.45-1.32-4.3-.31-1.02-.99-.4-1.16-.47-.25-1.46-.2-1.16-1.06-.5-3.66-1.72v-12.58l-1.53-.52-7.9-2.68-.91-.31-.85.44-2.13,1.11-.33-1.68-.25-1.29-1.25-.41-10.31-3.4-1.07-.35h0Z"/>
    </g>
    <path id="path1" fill="#a09700" d="M48.58,38.29l1.12,1.36,1.85-.64-1.45-1.36-1.53.64ZM30.27,11.8l-2.73,1.93-15.74,37.17,9.31,3.37,4.42-.16,2.01,2.41,3.69,1.45,5.38.48,5.06-4.5,6.34-.96.72-2.57,4.9-.64,2.01-3.05,2.81-.64.8-6.82-.64-2.09-2.57-1.04-.48-2.81-5.3-2.49v-12.12l-4.26-1.45-4.34,2.25-3.93-2.17-.64-3.29-6.82-2.25ZM50.74,35.81l1.69,1.36,1.12,3.13,2.49.48.4,1.28-.56.88-2.49-.32-1.53,2.09-2.81.96-2.01-1.53-1.12-2.65-2.41-1.28,2.57-.56,2.17-3.37,2.49-.48ZM46.09,22.96l-.4,13.65-5.78,2.49,4.82,4.17-.48,5.38-6.74,1.04-2.81,4.01h-4.74l12.44-30.35,3.69-.4ZM39.18,23.44l.08,2.09-10.44,25.53-1.12.24-2.65-2.09,11.24-26.33,2.89.56ZM34.53,20.55l.24,1.77-11.08,27.14-3.85-.72,11.24-29.14,3.45.96Z"/>
  </g>
</svg>