<svg id="Layer_3" data-name="Layer 3" xmlns="http://www.w3.org/2000/svg" viewBox="0 0 70 70">
  <g id="color_0" data-name="color 0" vector-effect="non-scaling-stroke">
    <g>
      <polygon fill="#fff" points="51.87 64.01 32.11 50.79 27.74 53.16 22.49 52.84 18.1 49.62 15.45 44.09 15.34 41.6 10.7 37.9 7.76 28.04 9.37 17.45 15.95 9.03 24.65 5.3 33.35 5.5 40.04 7.93 45.41 12.22 48.73 12.22 53.79 15.87 56.05 20.95 55.53 26.19 53.67 30.19 51.47 32.05 62.21 52.88 62.21 59.31 58.44 64.77 51.87 64.01"/>
      <path d="M24.87,6.43l8.27.19,6.34,2.31,5.53,4.42h3.36l4.51,3.26,2.02,4.53-.46,4.75-1.68,3.6-2.69,2.28,11.03,21.38v5.81l-3.19,4.61-5.63-.64-20.1-13.45-4.68,2.54-4.6-.28-3.89-2.85-2.43-5.08-.12-2.77-4.77-3.8-2.77-9.29,1.53-10.05,6.21-7.96,8.21-3.52M24.43,4.17l-.45.19-8.21,3.52-.53.23-.36.46-6.21,7.96-.36.46-.09.58-1.53,10.05-.08.5.14.48,2.77,9.29.2.68.55.44,3.97,3.16.08,1.75.02.46.2.41,2.43,5.08.24.51.46.33,3.89,2.85.53.39.66.04,4.6.28.64.04.57-.31,3.48-1.89,18.97,12.7.45.3.54.06,5.63.64,1.34.15.77-1.11,3.19-4.61.4-.58v-7.05l-.25-.48-10.21-19.79,1.32-1.12.38-.32.21-.45,1.68-3.6.16-.35.04-.38.46-4.75.06-.59-.24-.54-2.02-4.53-.25-.55-.49-.36-4.51-3.26-.59-.43h-3.3l-4.91-3.93-.29-.23-.35-.13-6.34-2.31-.35-.13h-.37s-8.27-.2-8.27-.2h-.49Z"/>
    </g>
    <path fill="#007fa1" d="M18.78,12.71l-5.14,6.58-1.28,8.43,2.25,7.55,5.14,4.09.16,3.61,1.77,3.69,2.41,1.77,2.65.16,5.62-3.05,21.11,14.13,2.81.32,1.45-2.09v-3.93l-11.88-23.04,4.17-3.53,1.12-2.41.32-3.29-1.28-2.89-2.89-2.09h-3.45l-6.02-4.82-5.3-1.93-6.98-.16-6.74,2.89ZM40.14,31.57l8.67,14.69,3.93,8.99-18.63-13.41,6.26-3.69-.24-6.58ZM45.19,21.3l.4,1.45-2.17,2.81-7.15,3.85-1.45,7.95-1.36.88-3.13-.32-.64,2.01-3.29,2.81-1.93-2.17.8-4.74-5.38-1.61-3.61-5.38v-2.97l2.25-4.98,2.81-2.97,5.3-2.73,3.61-.64,4.17,1.12,3.13,2.65,1.45,4.09,6.18-1.12Z"/>
  </g>
</svg>