<svg id="Layer_3" data-name="Layer 3" xmlns="http://www.w3.org/2000/svg" viewBox="0 0 70 70">
  <g id="color_0" data-name="color 0" vector-effect="non-scaling-stroke">
    <g>
      <polygon fill="#fff" points="22.04 58.72 21.78 58.56 21.07 58.56 20.81 58.4 20.43 58.4 20.17 58.24 19.79 58.24 19.53 58.08 19.31 58.08 19.05 57.92 18.95 57.92 16.48 57.06 15.38 56.17 14.1 55.53 13.76 55.37 13.68 55.28 13.39 55.16 12.59 54.36 12.47 54.07 12.44 54.04 11.17 52.09 10.91 51.18 10.89 51.18 8.1 50.02 7.62 49.54 6.46 46.74 6.46 45.64 6.62 45.38 6.62 44.84 6.78 44.58 6.78 44.2 6.94 43.94 6.94 43.39 7.1 43.13 7.1 42.75 7.26 42.49 7.26 41.95 7.42 41.69 7.42 41.14 7.58 40.88 7.58 40.34 7.74 40.08 7.74 39.7 7.9 39.44 7.9 38.9 8.06 38.64 8.06 38.25 8.26 37.94 8.44 36.21 8.6 35.99 8.71 35.74 8.74 35.69 8.92 33.96 9.08 33.74 9.19 33.5 9.19 32.95 9.35 32.69 9.35 32.31 9.54 32 9.72 30.27 9.83 30.12 9.83 29.91 9.99 29.65 9.99 29.26 10.19 28.95 10.37 27.22 10.47 27.06 10.47 26.85 10.63 26.59 10.63 26.21 10.83 25.9 11.01 24.17 11.16 23.95 11.28 23.69 11.31 23.65 11.49 21.92 11.65 21.7 11.77 21.44 11.79 21.4 11.97 19.67 12.13 19.45 12.25 19.2 12.27 19.15 12.46 17.42 12.62 17.19 12.88 16.43 12.88 16.19 14.04 13.39 14.52 12.92 17.31 11.76 18.08 11.76 18.34 11.6 30.29 11.6 30.55 11.44 35.26 11.44 35.52 11.28 36.56 11.28 36.82 11.44 38.8 11.44 39.06 11.28 40.9 11.28 41.1 11.4 41.3 11.28 47.96 11.28 48.22 11.44 49.16 11.44 49.57 11.76 49.65 11.76 50.05 12.09 50.2 12.24 50.25 12.13 51.71 12.86 52.39 13.96 53.04 14.47 53.24 15.28 53.75 15.79 53.75 16.16 53.91 16.42 53.91 16.96 54.07 17.22 54.07 17.92 54.23 18.18 54.23 19.21 54.39 19.47 54.39 20.01 54.55 20.27 54.55 21.3 54.71 21.56 54.71 22.26 54.87 22.52 54.87 23.48 55.69 23.72 56.54 24.42 56.86 24.58 56.96 24.72 58.35 25.41 58.43 25.47 58.58 25.53 60 26.23 61.58 26.89 62.22 27.52 63.34 30.21 63.54 30.54 63.54 31.43 63.38 31.69 63.38 32.37 63.54 32.63 63.54 33.51 63.38 33.77 63.38 42.18 63.22 42.44 63.22 44.86 61.63 48.03 60.2 49.11 59.83 48.61 58.87 49.57 56.25 49.57 55.99 49.73 54 49.73 53.74 49.89 53.1 49.89 52.88 50.65 51.62 52.6 51.38 52.79 51.2 53.19 50.46 53.8 49.58 54.8 48.91 55.11 48.88 55.15 46.81 56.57 45.95 56.82 45.5 57.16 44.09 57.41 43.79 57.6 43.41 57.6 43.15 57.76 42.44 57.76 42.18 57.92 40.02 57.92 39.76 57.76 38.89 57.76 38.63 57.6 38.09 57.6 37.83 57.44 37.61 57.44 37.35 57.28 37.26 57.28 34.79 56.41 33.84 55.65 32.04 56.89 30.83 57.24 30.09 57.8 28.67 58.06 28.38 58.24 28.15 58.24 27.89 58.4 27.51 58.4 27.25 58.56 26.55 58.56 26.29 58.72 22.04 58.72"/>
      <path d="M47.64,12.4l.26.16h.86l.41.32h.07l.25.25,1.09.85.17-.34.16.08.62,1.01.5.39.08.32-.12.03.26.43.36.36v.22l.16.26v.54l.16.26v.7l.16.26v1.02l.16.26v.54l.16.26v1.02l.16.26v.7l.16.26v1.02l.16.26v.24l.65.33.03-.12.56.16.77.64.2.1.11.14.19.11h.06l.26.16h.06l.26.16h.06l.26.16h.06l.26.16h.06l.26.16h.06l1.42.71,1.45.6.32.32.99,2.38v.06l.16.26v.24l-.39.64-.15.33.04.07h.34v.54l.16.26v.24l-.16.26v8.41l-.16.26v.38h-.24l-.15.24h.39v1.85l-1.35,2.7-.32.24-.47-.63-1.55,1.55h-2.47l-.26.16h-1.99l-.26.16h-1.12l-.41.81.12.03-.16.56-1.08,1.66-.3.25-.19.4-.48.4-.07-.08-.45.28.18.16-.56.64-.71.32-.09.12-1.77,1.22-.56.16-.03-.12-.69.52-.88.16-.03-.19-.65.4h-.38l-.26.16h-.7l-.26.16h-1.53l-.26-.16h-.86l-.26-.16h-.54l-.26-.16h-.22l-.26-.16h-.22l-2.11-.74-.4-.32.11-.14-1.14-.57-.58.24v.02s-1.78,1.22-1.78,1.22l-.56.16-.07-.25-1.29.97-.88.16-.03-.19-.65.4h-.22l-.26.16h-.38l-.26.16h-.7l-.26.16h-3.61l-.26-.16h-.7l-.26-.16h-.38l-.26-.16h-.38l-.26-.16h-.22l-.26-.16h-.22l-2.11-.74-.4-.32.11-.14-1.91-.95v-.02s-.37-.17-.37-.17l-.1-.12-.34-.14-.48-.48-.14-.34-.11-.1-1.08-1.66-.16-.56.28-.08-.57-.93h-.64l-2.38-.99-.16-.16-.99-2.38v-.56l.16-.26v-.54l.16-.26v-.38l.16-.26v-.54l.16-.26v-.38l.16-.26v-.54l.16-.26v-.54l.16-.26v-.54l.16-.26v-.38l.16-.26v-.54l.16-.26v-.38l.26-.42h-.08s.16-1.53.16-1.53l.14-.21v-.08l.26-.42h-.08s.16-1.53.16-1.53l.14-.21v-.08l.16-.26v-.54l.16-.26v-.38l.26-.42h-.08s.16-1.53.16-1.53l.14-.2v-.24l.16-.26v-.38l.26-.42h-.08s.16-1.53.16-1.53l.14-.2v-.24l.16-.26v-.38l.26-.42h-.08s.16-1.53.16-1.53l.14-.2v-.08l.26-.42h-.08s.16-1.53.16-1.53l.14-.2v-.08l.26-.42h-.08s.16-1.53.16-1.53l.14-.2v-.08l.26-.42h-.08s.16-1.53.16-1.53l.14-.2v-.08l.32-.92v-.21l.99-2.38.16-.16,2.38-.99h.86l.26-.16h11.94l.26-.16h4.72l.26-.16h.4l.26.16h2.61l.26-.16h1.2l.26.16h.52l.26-.16h6.02M48.28,10.15h-9.55l-.26.16h-1.33l-.26-.16h-1.68l-.26.16h-4.72l-.26.16h-11.94l-.26.16h-.67l-.41.17-2.38.99-.41.17-.32.32-.16.16-.32.32-.17.41-.99,2.38-.17.41v.27l-.15.44-.24.34-.06.57-.12,1.19-.23.37v.02l-.07.1-.06.57-.12,1.19-.23.37v.02l-.07.1-.06.57-.12,1.19-.23.37v.02l-.07.1-.06.57-.13,1.19-.23.37v.38l-.16.26v.18l-.07.1-.06.57-.12,1.19-.23.37v.38l-.16.26v.18l-.07.1-.06.57-.13,1.19-.23.37v.38l-.16.26v.54l-.16.26v.02l-.07.1-.06.57-.12,1.19-.23.37v.02l-.07.1-.06.57-.12,1.19-.23.37v.38l-.16.26v.54l-.16.26v.38l-.16.26v.54l-.16.26v.54l-.16.26v.54l-.16.26v.38l-.16.26v.54l-.16.26v.38l-.16.26v.54l-.16.26v1.65l.17.41.99,2.38.17.41.32.32.16.16.32.32.41.17,2.11.88.06.22.09.33.18.28,1.08,1.66.09.14.14.34.32.32.48.48.32.32.24.1.06.07.45.21.14.07.18.09.94.47.46.37.4.32.3.24.36.13,2.11.74.28.1.3.19h.22l.26.16h.38l.26.16h.38l.26.16h.7l.26.16h4.89l.26-.16h.7l.26-.16h.38l.26-.16h.22l.39-.24h.06s.88-.17.88-.17l.52-.09.42-.32.37-.28.26-.08.56-.16.35-.1.3-.21.96-.66.15.12.3.24.36.13,2.11.74.28.1.3.19h.22l.26.16h.54l.26.16h.86l.26.16h2.8l.26-.16h.7l.26-.16h.38l.39-.24h.06s.88-.17.88-.17l.52-.09.42-.32.08-.06.48-.14.35-.1.3-.21,1.77-1.22.18-.12.28-.13.44-.2.32-.37.56-.64.1-.11.48-.4.38-.32.19-.39.17-.14.18-.28,1.08-1.66.18-.28.03-.1h.11l.26-.16h1.99l.26-.16h2.76l.37-.37.27.36,1.8-1.35.32-.24.42-.32.24-.47,1.35-2.7.24-.47v-2.36l.16-.26v-8.41l.16-.26v-1.52l-.16-.26v-.05l.16-.26v-1.52l-.16-.26v-.07h-.04l-.12-.2v-.02s-1-2.38-1-2.38l-.17-.41-.32-.32-.32-.32-.32-.32-.41-.17-1.38-.57-1.35-.67-.23-.11-.46-.28h-.06l-.26-.16h-.06l-.26-.16h-.06l-.03-.02-.06-.09-.44-.22-.57-.47-.36-.3-.23-.07v-.44l-.16-.26v-.7l-.16-.26v-1.02l-.16-.26v-.54l-.16-.26v-1.02l-.16-.26v-.7l-.16-.26v-.54l-.16-.26v-.51l-.61-.61-.03-.14-.19-.75-.61-.48-.18-.14-.41-.66-.34-.54-.57-.29-.16-.08-1.17-.58-.41-.41h-.23l-.41-.32h-1l-.26-.16h0Z"/>
    </g>
    <path fill="#7050ba" d="M41.94,23.48v.4l-.16.08v1.04l-.16.08v1.53l-.16.08v1.69l-.16.08v1.53l-.16.08.16.16-.16.16.16.16v.24l.16.16h2.17l.08-.16.16.16h.56l.08-.16h1.36l.08-.16h.24l-.16-.16v-.4l-.16-.08v-.24l-.16-.08v-.24l-.16-.08v-.24l-.16-.08v-.24l-.32-.4v-.4l-.16-.08v-.24l-.16-.08v-.24l-.16-.08v-.24l-.16-.08v-.24l-.32-.4v-.4l-.32-.24v-.24l-.16-.08v-.4l-.32-.24v-.24l-.16-.08v-.24l-.16-.08-.16-.56-.16-.16h-.24l-.08.16h-.4ZM49.25,16.25h-.4l-.08-.32h-1.04l-.08-.16h-6.02l-.08.16h-.88l-.08-.16h-1.2l-.08.16h-2.97l-.08-.16h-.4l-.08.16h-4.9l-.08.16h-12.12l-.08.16h-1.04l-.16.16v.72l-.32.4v.56l-.16.08-.16,1.53-.16.08v.56l-.16.08-.16,1.53-.16.08v.56l-.16.08-.16,1.53-.16.08v.56l-.16.08-.16,1.53-.16.08v.56l-.16.08v.72l-.16.08-.16,1.53-.16.08v.56l-.16.08v.72l-.16.08-.16,1.53-.16.08v.56l-.16.08v.72l-.16.08v.56l-.16.08-.16,1.53-.16.08v.56l-.16.08-.16,1.53-.16.08v.56l-.16.08v.72l-.16.08v.56l-.16.08v.72l-.16.08v.72l-.16.08v.72l-.16.08v.56l-.16.08v.72l-.16.08v.56l-.16.08v.72l-.16.08v.56l.16.16h2.01l.08-.16h1.53l.08.32-.16.08v2.01l.16.08v.4l.16.08v.24l.16.08v.24l.16.08.16.56.48.4v.24l.48.48h.24l.4.48h.24l.24.32h.24l.08.16h.24l.08.16h.24l.08.16h.24l.4.32h.4l.08.16h.4l.08.16h.56l.08.16h.56l.08.16h.88l.08.16h3.61l.08-.16h.88l.08-.16h.56l.08-.16h.4l.08-.16.88-.16.08-.16h.24l.08-.16h.24l.08-.16h.24l.08-.16.56-.16.24-.32h.24l.24-.32h.24l1.28-1.28v-.24l.32-.24v-.24l.32-.24.08-.32.48.4v.24l.32.24v.24h.24l.08.32.8.8h.24l.24.32h.24l.24.32h.24l.08.16h.24l.4.32h.4l.08.16h.4l.08.16h.72l.08.16h1.04l.08.16h1.53l.08-.16h.88l.08-.16h.56l.08-.16.88-.16.08-.16h.24l.08-.16.56-.16.24-.32h.24l.24-.32h.24l.56-.64h.24l.24-.48h.24v-.24l.48-.4v-.24l.48-.4.16-.56.32-.24v-.4l.32-.24v-.4l.16-.08v-.4l.16-.08v-.56l.16-.08.08-.64h.56l.08-.16h2.81l.08-.16h2.17l.08-.16h2.65v-.24l.32-.24v-1.85l.16-.08-.16-.16v-.56l.16-.08v-8.59l.16-.08v-.24l-.16-.08v-.72l.16-.08-.16-.56.16-.16-.16-.16.16-.08v-.24l-.16-.08v-.24l-.32-.32h-.24l-.24-.32h-.24l-.08-.16h-.24l-.08-.16h-.24l-.08-.16h-.24l-.08-.16h-.24l-.08-.16h-.24l-.08-.16h-.24l-.08-.16h-.24l-.08-.16h-.24l-.08-.16h-.24l-.08-.16h-.24l-.08-.16h-.24l-.08-.16-.56-.16-.24-.32h-.24l-.08-.16h-.4l-.24-.32h-.4l-.24-.32h-.24l-.08-.16h-.24l-.08-.16h-.24l-.24-.24v-.88l-.16-.08v-1.04l-.16-.08v-1.2l-.16-.08v-.88l-.16-.08v-1.2l-.16-.08v-.72l-.16-.08v-1.2l-.16-.08v-.88l-.16-.08v-.72l-.16-.08v-.4ZM30.38,43.39v1.85l-.16.08v.4l-.16.08v.24l-.16.08-.16.56-1.53,1.53h-.24l-.24.32h-.24l-.08.16-.88.16-.08.16h-2.01l-.08-.16h-.56l-.08-.16h-.24l-.08-.16-.56-.16-1.36-1.36v-.24l-.16-.08v-.24l-.32-.4v-.56l-.16-.08v-1.36l.24-.24h1.36l.08-.16h2.65l.08-.16h2.81l.08-.16,2.25.08ZM45.96,43.07v.88l-.16.08v.56l-.16.08v.4l-.16.08-.16.56-.48.4v.24l-.72.72h-.24l-.72.64h-.4l-.08.16h-.4l-.08.16h-.56l-.08.16h-1.69l-.08-.16h-.56l-.08-.16h-.4l-.08-.16-.56-.16-.24-.32h-.24l-1.04-1.04v-.24l-.32-.24v-.24l-.16-.08v-.4l-.16-.08v-1.85l.24-.24h1.69l.08-.16h2.65l.08-.16h2.33l.08-.16h1.85l.08-.16h.56l.24.24v.56l.16.08ZM21.79,21.87l.48-.08.08-.32h23.52l.08.8.32.24v1.04l.32.4v.56l.16.08v.72l.16.08v.56l.16.08v.56l.16.08v.56l.16.08v.56l.16.08v.56l.16.08v.56l.16.08.16.88.16.16h.24l.08.16h.4l.08.16h.24l.4.32h.4l.4.32h.4l.08.16h.24l.4.32h.4l.08.16h.24l.08.16.32.08v.56l.16.08v5.22l-.32.08v.88l-.16.08v.4l-1.61.08-.08.16h-1.69l-.08.16-.16-.16h-.24l-.08.16h-1.69l-.08.16-.24-.16-.08.16h-2.01l-.08.16h-2.01l-.08.16h-2.17l-.08.16-4.42.16-.08.16h-1.85l-.08.16h-1.85l-.08.16h-2.17l-.08.16-.24-.16-.08.16h-2.01l-.08.16h-2.17l-.08.16h-2.17l-.08.16h-2.01l-.08.16h-2.81l-.08-.32.16-.08v-.88l.16-.08v-.56l.16-.08v-.72l.16-.08.16-1.53.16-.08v-.56l.16-.08v-.72l.16-.08v-.56l.16-.08v-.72l.16-.08v-.56l.16-.08v-.88l.16-.08v-.56l.16-.08v-.72l.16-.08v-.56l.16-.08v-.72l.16-.08v-.56l.16-.08v-.72l.16-.08v-.56l.16-.08v-.72l.16-.08.16-1.53.16-.08v-.56l.16-.08v-.72l.16-.08v-.56l.16-.08v-.72l.16-.08v-.56l.16-.08v-.24Z"/>
  </g>
</svg>