<svg id="Layer_3" data-name="Layer 3" xmlns="http://www.w3.org/2000/svg" viewBox="0 0 70 70">
  <g id="color_0" data-name="color 0" vector-effect="non-scaling-stroke">
    <g>
      <polygon fill="#fff" points="6.47 32.06 34.09 4.53 63.62 32.32 39.81 58.16 31.94 65.58 6.47 32.06"/>
      <path d="M34.11,6.1l27.93,26.28-23.06,25.02-6.91,6.5L7.96,32.16,34.11,6.1M34.07,2.97l-1.54,1.54L6.37,30.57l-1.39,1.39,1.19,1.57,24.12,31.74,1.51,1.99,1.82-1.71,6.91-6.5.06-.05.05-.06,23.06-25.02,1.51-1.64-1.62-1.52L35.66,4.46l-1.59-1.49h0Z"/>
    </g>
    <path fill="#00a144" d="M34.1,23.31l-8.35,9.55,8.75,8.19,8.83-8.91-9.23-8.83ZM33.62,25.8l7.55,6.66-6.34,6.1-6.9-6.02,5.7-6.74ZM34.18,10.79l-21.76,21.68,20.07,26.41,4.09-3.85,20.71-22.48-23.12-21.76ZM34.66,17.61l14.85,14.45-15.9,16.3-13.09-16.22,14.13-14.53Z"/>
  </g>
</svg>