<svg id="Layer_3" data-name="Layer 3" xmlns="http://www.w3.org/2000/svg" viewBox="0 0 70 70">
  <g id="color_0" data-name="color 0" vector-effect="non-scaling-stroke">
    <g>
      <polygon fill="#fff" points="17.66 60.13 10.94 57.11 7 50.23 7.25 43.54 8.04 42.23 8.01 42.2 7.3 35.68 8.52 31.12 8.65 31.01 7.21 28.21 7.21 22.74 9.74 18.52 15.51 14.14 21.88 11.33 34.52 8.66 47.22 10.49 57.27 15.71 61.94 22.71 61.67 29.05 60.45 31.16 63.03 33.68 61.97 44.5 60.59 45.38 60.79 49.95 58.15 57.38 51.85 60.8 35.39 61.32 17.66 60.13"/>
      <path d="M34.55,9.8l12.32,1.77,9.63,5,4.3,6.45-.24,5.7-1.51,2.62,2.82,2.75-.96,9.74-1.46.94.22,5-2.42,6.82-5.69,3.08-16.14.51-17.47-1.18-6.21-2.78-3.59-6.29.23-6.08,1.03-1.73-.3-.38-.65-5.99,1.07-4.02.54-.47-1.73-3.34v-4.88l2.26-3.77,5.49-4.16,6.14-2.71,12.33-2.6M34.48,7.52l-.39.08-12.33,2.6-.23.05-.21.09-6.14,2.71-.24.11-.21.16-5.49,4.16-.35.26-.22.37-2.26,3.77-.32.53v6.05l.25.49,1.05,2.04-.04.16-1.07,4.02-.11.41.05.42.65,5.99h0s-.43.72-.43.72l-.29.49-.02.57-.23,6.08-.02.64.32.56,3.59,6.29.36.64.67.3,6.21,2.78.37.16.4.03,17.47,1.18h.11s.11,0,.11,0l16.14-.51.53-.02.47-.25,5.69-3.08.76-.41.29-.81,2.42-6.82.15-.41-.02-.44-.16-3.7.37-.24.92-.59.11-1.09.96-9.74.11-1.07-.77-.75-1.57-1.53.64-1.11.28-.48.02-.55.24-5.7.03-.73-.41-.61-4.3-6.45-.32-.48-.51-.27-9.63-5-.34-.18-.38-.05-12.32-1.77-.39-.06h0Z"/>
    </g>
    <path id="path1" fill="#bd5200" d="M13.15,21.58l-1.45,2.41v3.13l2.57,4.98-1.77,1.53-.64,2.41.48,4.42,1.12,1.45-1.77,2.97-.16,4.26,2.57,4.5,4.66,2.09,16.7,1.12,15.17-.48,3.85-2.09,1.77-4.98-.16-3.61-1.28-1.93,2.89-1.85.64-6.5-3.53-3.45,2.41-4.17.16-3.77-3.21-4.82-8.35-4.34-11.16-1.61-11.4,2.41-5.46,2.41-4.66,3.53ZM19.33,45.98l1.85-3.29,16.22,1.77,10.04-.48,1.53,1.53.32,3.13-1.2,2.17-3.69,1.61h-15.98l-8.03-1.61-1.04-4.82ZM18.21,34.9l3.13-2.17,10.44,1.28,15.49-.32,2.01,1.2.64,4.42-1.85,2.81-10.2.32-18.14-2.25-1.36-2.17-.16-3.13ZM19.81,25.91l2.01-2.97,5.3-2.89,10.68-.64,5.62,1.12,3.85,2.09,1.69,2.81v3.13l-1.69,2.81-2.73.8-14.69.16-7.55-1.12-2.33-2.49-.16-2.81Z"/>
  </g>
</svg>