<?xml version="1.0" encoding="UTF-8"?>
<svg id="Layer_1" data-name="Layer 1" xmlns="http://www.w3.org/2000/svg" viewBox="0 0 792.01 136.93">
  <defs>
    <style>
      .cls-1 {
        fill: #fff;
      }
    </style>
  </defs>
  <g>
    <path d="M792,70.21c0-.11,0-.21,0-.32-.15-19.99-14.2-40.01-34.7-43.05-5-.74-9.86.02-13.94,2-1.98-1.67-4.63-2.98-8.21-3.39-5.76-.67-8.65-.98-14.41-1.55-.12-.01-.24-.03-.36-.04-5.92-.58-10.59,2.21-12.66,6.86-7.25-6.87-17.68-10.5-28.39-11-4.72-.22-10.97.13-16.16,1.01,0-.03,0-.05,0-.08,0-.05,0-.1,0-.15,0-.11,0-.22,0-.32,0-.05,0-.1,0-.15,0-.11,0-.22,0-.32,0-.05,0-.1,0-.15,0-.11,0-.22,0-.32,0-.05,0-.1,0-.15,0-.11,0-.22,0-.32,0-.05,0-.1,0-.15,0-.11,0-.22,0-.32,0-.05,0-.1,0-.15,0-.11,0-.22,0-.32,0-.05,0-.1,0-.15,0-.11,0-.22,0-.32,0-.05,0-.1,0-.15,0-.11,0-.22,0-.32,0-.05,0-.1,0-.15,0-.11,0-.22,0-.32,0-.05,0-.1,0-.15,0-.11,0-.22,0-.32,0-.05,0-.1,0-.15,0-.11,0-.22,0-.32,0-.05,0-.1,0-.15,0-.11,0-.22,0-.32,0-.05,0-.1,0-.15,0-.11,0-.22,0-.32,0-8.02-5.96-14.07-14.16-14.24-6.02-.13-9.03-.18-15.06-.22-6.4-.05-13.66.77-18.76,10.59-2.26,4.42-3.39,6.63-5.65,11.06-2.48-4.77-3.72-7.15-6.2-11.9-3.29-6.31-8.51-9.44-15.52-9.24-6.97.2-10.45.32-17.42.61-.12,0-.24,0-.36.01-8.03.33-13.79,6.38-14.01,14.11,0,.25,0,.51,0,.77,0,.16,0,.32,0,.49,0,.16,0,.31,0,.48,0,.16,0,.31,0,.48,0,.16,0,.31,0,.48,0,.16,0,.31,0,.48,0,.16,0,.31,0,.48,0,.16,0,.31,0,.48,0,.16,0,.31,0,.48,0,.16,0,.31,0,.48,0,.16,0,.31,0,.48,0,.16,0,.31,0,.48,0,.16,0,.32,0,.48,0,.16,0,.31,0,.47,0,.16,0,.31,0,.48,0,.16,0,.31,0,.48,0,.16,0,.31,0,.48,0,.16,0,.31,0,.48,0,.16,0,.31,0,.48,0,.16,0,.31,0,.48,0,.16,0,.32,0,.48-.04,3.6,1.13,8.42,6.88,11.8v.64c0,11.5,0,23.01,0,34.51-5.58,3.75-6.78,8.71-6.78,12.26,0,.05,0,.1,0,.15,0,.11,0,.22,0,.33,0,.05,0,.1,0,.15,0,.11,0,.22,0,.33,0,.05,0,.1,0,.15,0,.11,0,.22,0,.33,0,.05,0,.1,0,.15,0,.11,0,.22,0,.33,0,.05,0,.1,0,.15,0,.11,0,.22,0,.33,0,.05,0,.1,0,.15,0,.11,0,.22,0,.33,0,.05,0,.1,0,.15,0,.11,0,.22,0,.33,0,.05,0,.1,0,.15,0,.11,0,.22,0,.33,0,.05,0,.1,0,.15,0,.11,0,.22,0,.33,0,.05,0,.1,0,.15,0,.11,0,.22,0,.33,0,.05,0,.1,0,.15,0,.11,0,.22,0,.33,0,.05,0,.1,0,.15,0,.11,0,.22,0,.33,0,.05,0,.1,0,.15,0,.11,0,.22,0,.33,0,.05,0,.1,0,.15,0,.11,0,.22,0,.33,0,.05,0,.1,0,.15,0,.11,0,.22,0,.33,0,.05,0,.1,0,.15,0,.11,0,.22,0,.33,0,.05,0,.1,0,.15,0,.11,0,.22,0,.33,0,.05,0,.1,0,.15,0,.11,0,.22,0,.33,0,.05,0,.1,0,.15,0,.11,0,.22,0,.33,0,.05,0,.1,0,.15,0,.11,0,.22,0,.33,0,.05,0,.1,0,.15,0,.11,0,.22,0,.33,0,8.02,6,13.53,14.27,13.2,6.84-.28,10.27-.4,17.11-.6.13,0,.25,0,.38,0,8.53-.24,14.72-5.88,15.05-13.82,0-.07,0-.11,0-.19v-.19c0-.06,0-.12,0-.18,0-.03,0-.07,0-.11v-.19c0-.06,0-.12,0-.18,0-.03,0-.07,0-.11v-.19c0-.06,0-.12,0-.18,0-.03,0-.07,0-.11v-.19c0-.06,0-.12,0-.18,0-.03,0-.07,0-.11v-.19c0-.06,0-.12,0-.18,0-.03,0-.07,0-.11v-.19c0-.06,0-.12,0-.18,0-.03,0-.07,0-.11v-.19c0-.06,0-.12,0-.18,0-.03,0-.07,0-.11v-.19c0-.06,0-.12,0-.18,0-.03,0-.07,0-.11v-.19c0-.06,0-.12,0-.18,0-.03,0-.07,0-.11v-.19c0-.06,0-.12,0-.18,0-.03,0-.07,0-.11v-.19c0-.06,0-.12,0-.18,0-.03,0-.07,0-.11v-.19c0-.06,0-.12,0-.18,0-.03,0-.07,0-.11v-.19c0-.06,0-.12,0-.18,0-.03,0-.07,0-.11v-.19c0-.06,0-.12,0-.18,0-.03,0-.07,0-.11v-.19c0-.06,0-.12,0-.18,0,0,0-.02,0-.03.92.16,1.89.25,2.94.23,1.28-.02,2.72-.19,4.23-.63,0,.03,0,.06,0,.09,0,.1,0,.2,0,.3,0,.06,0,.12,0,.18,0,.1,0,.2,0,.3,0,.06,0,.12,0,.18,0,.1,0,.2,0,.3,0,.06,0,.12,0,.18,0,.1,0,.2,0,.3,0,.06,0,.12,0,.18,0,.1,0,.2,0,.3,0,.06,0,.12,0,.18,0,.1,0,.2,0,.3,0,.06,0,.12,0,.18,0,.1,0,.2,0,.3,0,.06,0,.12,0,.18,0,.1,0,.2,0,.3,0,.06,0,.12,0,.18,0,.1,0,.2,0,.3,0,.06,0,.12,0,.18,0,.1,0,.2,0,.3,0,.06,0,.12,0,.18,0,.1,0,.2,0,.3,0,.06,0,.12,0,.18,0,.1,0,.2,0,.3,0,.06,0,.12,0,.18,0,.1,0,.2,0,.3,0,.06,0,.12,0,.18,0,.1,0,.2,0,.3,0,.06,0,.12,0,.18,0,.1,0,.2,0,.3,0,9.16,7.67,13.86,15.24,13.86,9.34,0,14,.05,23.34.25.12,0,.25,0,.37.01,3.97.09,7.41-1.16,9.91-3.39,4.69,3.23,10.23,5.26,15.96,5.57,6.83.32,13.1-.77,18.41-3.23,4.15,2.87,8.71,4.5,13.45,5.05,0,.04,0,.09,0,.13,0,.11,0,.22,0,.33,0,.05,0,.1,0,.15,0,.11,0,.22,0,.33,0,.05,0,.1,0,.15,0,.11,0,.22,0,.33,0,.05,0,.1,0,.15,0,.11,0,.22,0,.33,0,.05,0,.1,0,.15,0,.11,0,.22,0,.33,0,.05,0,.1,0,.15,0,.11,0,.22,0,.33,0,.05,0,.1,0,.15,0,.11,0,.22,0,.33,0,.05,0,.1,0,.15,0,.11,0,.22,0,.33,0,.05,0,.1,0,.15,0,.11,0,.22,0,.33,0,.05,0,.1,0,.15,0,.11,0,.22,0,.33,0,.05,0,.1,0,.15,0,.11,0,.22,0,.33,0,7.89,5.91,14.09,14.05,14.9,8.6.85,12.91,1.33,21.51,2.41,9.65,1.21,14.7-4.81,14.7-11.53,0-.1,0-.21,0-.32,0-.05,0-.1,0-.16,0-.1,0-.21,0-.32,0-.05,0-.1,0-.16,0-.1,0-.21,0-.32,0-.05,0-.1,0-.16,0-.1,0-.21,0-.32,0-.05,0-.1,0-.16,0-.1,0-.21,0-.32,0-.05,0-.1,0-.16,0-.1,0-.21,0-.32,0-.05,0-.1,0-.16,0-.1,0-.21,0-.32,0-.05,0-.1,0-.16,0-.1,0-.21,0-.32,0-.05,0-.1,0-.16,0-.1,0-.21,0-.32,0-.05,0-.1,0-.16,0-.1,0-.21,0-.32,0-.05,0-.1,0-.16,0-.1,0-.21,0-.32,0-.05,0-.1,0-.16,0-.1,0-.21,0-.32,0-.05,0-.1,0-.15,20.76.32,35.11-15.97,34.95-36.45,0-.05,0-.11,0-.16,0-.11,0-.21,0-.32,0-.05,0-.11,0-.16,0-.11,0-.21,0-.32,0-.05,0-.11,0-.16,0-.11,0-.21,0-.32,0-.05,0-.11,0-.16,0-.11,0-.21,0-.32,0-.05,0-.11,0-.16,0-.11,0-.21,0-.32,0-.05,0-.11,0-.16,0-.11,0-.21,0-.32,0-.05,0-.11,0-.16,0-.11,0-.21,0-.32,0-.05,0-.11,0-.16,0-.11,0-.21,0-.32,0-.05,0-.11,0-.16,0-.11,0-.21,0-.32,0-.05,0-.11,0-.16,0-.11,0-.21,0-.32,0-.05,0-.11,0-.16,0-.11,0-.21,0-.32,0-.05,0-.11,0-.16,0-.11,0-.21,0-.32,0-.05,0-.11,0-.16,0-.11,0-.21,0-.32,0-.05,0-.11,0-.16,0-.11,0-.21,0-.32,0-.05,0-.11,0-.16,0-.11,0-.21,0-.32,0-.05,0-.11,0-.16,0-.11,0-.21,0-.32,0-.05,0-.11,0-.16,0-.11,0-.21,0-.32,0-.05,0-.11,0-.16,0-.11,0-.21,0-.32,0-.05,0-.11,0-.16,0-.11,0-.21,0-.32,0-.05,0-.11,0-.16,0-.11,0-.21,0-.32,0-.05,0-.11,0-.16ZM752.84,74.86c-.49.79-1.19,1.29-2.21,1.15-.13-.02-.25-.04-.36-.06v-5.45c.88.76,1.86,2.29,2.56,4.36Z"/>
    <path d="M219.26,61.9c0-2.87-.29-7.06-3.47-10.22-1.97-1.95-4.52-3.04-7.61-3.25v-3.66c0-7.52-5.25-12.59-12.76-12.42-4.93.11-9.31,2.67-12.33,7.24-.1.16-.15.24-.25.4-1.35,2.13-2.62,4.15-4.66,6.37v-.39h0v-.48h0v-.48h0v-.48h0v-.48h0v-.48h0v-.48h0v-.48h0v-.48c0-8.54-5.52-13.99-14.05-14.01-6.15-.02-9.23-.05-15.38-.15-8.11-.13-13.94,5.37-14.16,13.03,0,.23,0,.47,0,.71,0,.16,0,.32,0,.49,0,.16,0,.31,0,.48,0,.16,0,.31,0,.48,0,.16,0,.31,0,.48,0,.16,0,.31,0,.48,0,.16,0,.31,0,.48,0,.16,0,.31,0,.48,0,.16,0,.31,0,.48,0,.16,0,.31,0,.48,0,.16,0,.31,0,.48,0,.16,0,.31,0,.48,0,.16,0,.31,0,.48,0,.16,0,.31,0,.48,0,.16,0,.31,0,.48,0,.16,0,.31,0,.48,0,.16,0,.31,0,.48,0,.16,0,.31,0,.48,0,.16,0,.31,0,.48,0,.16,0,.31,0,.48,0,.16,0,.31,0,.48-.04,3.28,1.01,7.9,6.24,11.84,0,2.88,0,5.77,0,8.65-3.83-17.14-20.64-24.8-37.35-25.72-6.11-.34-14.81.02-20.43,1.28-.63-6.13-5.25-10.35-7.03-11.96-9.09-8.25-21.39-13.11-33.51-14.82C23.76,17.9,1.09,26.1,1.23,48.3c0,.07,0,.14,0,.21,0,.09,0,.17,0,.26,0,.07,0,.14,0,.21,0,.09,0,.17,0,.26,0,.07,0,.14,0,.21,0,.09,0,.17,0,.26,0,.07,0,.14,0,.21,0,.09,0,.17,0,.26,0,.07,0,.14,0,.21,0,.09,0,.17,0,.26,0,.07,0,.14,0,.21,0,.09,0,.17,0,.26,0,.07,0,.14,0,.21,0,.09,0,.17,0,.26,0,.07,0,.14,0,.21,0,.09,0,.17,0,.26,0,.07,0,.14,0,.21,0,.09,0,.17,0,.26,0,.07,0,.14,0,.21,0,.09,0,.17,0,.26,0,.07,0,.14,0,.21,0,.09,0,.17,0,.26,0,.07,0,.14,0,.21,0,.09,0,.17,0,.26,0,.07,0,.14,0,.21,0,.09,0,.17,0,.26,0,.07,0,.14,0,.21,0,.09,0,.17,0,.26,0,.07,0,.14,0,.21,0,.09,0,.17,0,.26,0,.07,0,.14,0,.21,0,.09,0,.17,0,.26,0,.07,0,.14,0,.21,0,.09,0,.17,0,.26,0,.07,0,.14,0,.21,0,.09,0,.17,0,.26,0,.07,0,.14,0,.21,0,.09,0,.17,0,.26,0,.07,0,.14,0,.21,0,.09,0,.17,0,.26,0,.07,0,.14,0,.21,0,.09,0,.17,0,.26.05,7.33,2.14,13.43,5.34,18.43C3.14,79.71-.2,83.4,0,89.23c0,.01,0,.02,0,.03,0,.15,0,.29,0,.45,0,.01,0,.02,0,.03,0,.15,0,.29,0,.45,0,.01,0,.02,0,.03,0,.15,0,.29,0,.45,0,.01,0,.02,0,.03,0,.15,0,.29,0,.45,0,.01,0,.02,0,.03,0,.15,0,.29,0,.45,0,.01,0,.02,0,.03,0,.15,0,.29,0,.45,0,.01,0,.02,0,.03,0,.15,0,.29,0,.45,0,.01,0,.02,0,.03,0,.15,0,.29,0,.45,0,.01,0,.02,0,.03,0,.15,0,.29,0,.45,0,.01,0,.02,0,.03,0,.15,0,.29,0,.45,0,.01,0,.02,0,.03,0,.15,0,.29,0,.45,0,.01,0,.02,0,.03,0,.15,0,.29,0,.45,0,.01,0,.02,0,.03,0,.15,0,.29,0,.45,0,.01,0,.02,0,.03,0,.15,0,.29,0,.45,0,.01,0,.02,0,.03,0,.15,0,.29,0,.45,0,.01,0,.02,0,.03,0,.15,0,.29,0,.45,0,.01,0,.02,0,.03,0,.15,0,.29,0,.45,0,.01,0,.02,0,.03,0,.15,0,.29,0,.45,0,.01,0,.02,0,.03,0,.15,0,.29,0,.45,0,.01,0,.02,0,.03,0,.15,0,.29,0,.45,0,.01,0,.02,0,.03,0,.15,0,.29,0,.45.23,6.52,4.96,11.67,6.51,13.26,9.49,9.77,22.63,15.27,36.19,17.39,11.77,1.74,24.25-1.2,32.59-8.47,5.43,7.8,14.23,13.36,23.76,14.09,6.82.46,13.1-.67,18.41-3.24,4.28,2.87,9,4.37,13.9,4.62.25.01.51.03.76.04,3.86.12,7.4-.68,10.35-2.16,1.88.91,4.03,1.44,6.36,1.48,8.52.14,12.78.17,21.29.15,3.59,0,6.74-1.13,9.16-3.06,3.67,2.32,8.23,3.43,13.42,2.8,5.16-.1,7.74-.17,12.91-.32,7.71-.23,13.3-6.19,13.3-14.08,0-.08-.01-.15-.01-.23,0-.08.01-.17.01-.25,0-.08-.01-.15-.01-.23,0-.08.01-.17.01-.25,0-.08-.01-.15-.01-.23,0-.08.01-.17.01-.25,0-.08-.01-.15-.01-.23,0-.08.01-.17.01-.25,0-.08-.01-.15-.01-.23,0-.08.01-.17.01-.25,0-.08-.01-.15-.01-.23,0-.08.01-.17.01-.25,0-.08-.01-.15-.01-.23,0-.08.01-.17.01-.25,0-.08-.01-.15-.01-.23,0-.08.01-.17.01-.25,0-.08-.01-.15-.01-.23,0-.08.01-.17.01-.25,0-.08-.01-.15-.01-.23,0-.08.01-.17.01-.25,0-.08-.01-.15-.01-.23,0-.08.01-.17.01-.25,0-.08-.01-.15-.01-.23,0-.08.01-.17.01-.25,0-.08-.01-.15-.01-.23,0-.08.01-.17.01-.25,0-.08-.01-.15-.01-.23,0-.08.01-.17.01-.25,0-.08-.01-.15-.01-.23,0-.08.01-.17.01-.25,0-.08-.01-.15-.01-.23,0-.08.01-.17.01-.25,0-.08-.01-.15-.01-.23,0-.08.01-.17.01-.25,0-.08-.01-.15-.01-.23,0-.08.01-.17.01-.25,0-.08-.01-.15-.01-.23,0-.08.01-.17.01-.25,0-.08-.01-.15-.01-.23,0-.08.01-.17.01-.25,0-.08-.01-.15-.01-.23,0-.08.01-.17.01-.25,0-9.65-7.48-12.38-10.92-13.35.01-3.53.03-6.95.04-11.65,3.73-.5,6.15-2.29,7.57-3.8,3.67-3.9,3.64-9.07,3.63-11.01,0-.01,0-.02,0-.03,0-.16,0-.31,0-.44,0-.01,0-.02,0-.03,0-.16,0-.31,0-.44,0-.01,0-.02,0-.03,0-.16,0-.31,0-.44,0-.01,0-.02,0-.03,0-.16,0-.31,0-.44,0-.01,0-.02,0-.03,0-.16,0-.31,0-.44,0-.01,0-.02,0-.03,0-.16,0-.31,0-.44,0-.01,0-.02,0-.03,0-.16,0-.31,0-.44,0-.01,0-.02,0-.03,0-.16,0-.31,0-.44,0-.01,0-.02,0-.03,0-.16,0-.31,0-.44,0-.01,0-.02,0-.03,0-.16,0-.31,0-.44,0-.01,0-.02,0-.03,0-.16,0-.31,0-.44,0-.01,0-.02,0-.03,0-.16,0-.31,0-.44,0-.01,0-.02,0-.03,0-.16,0-.31,0-.44,0-.01,0-.02,0-.03,0-.16,0-.31,0-.44,0-.01,0-.02,0-.03,0-.16,0-.31,0-.44,0-.01,0-.02,0-.03,0-.16,0-.31,0-.44,0-.01,0-.02,0-.03,0-.16,0-.31,0-.44,0-.01,0-.02,0-.03,0-.16,0-.31,0-.44,0-.01,0-.02,0-.03,0-.16,0-.31,0-.44,0-.01,0-.02,0-.03,0-.16,0-.31,0-.44,0-.01,0-.02,0-.04,0-.16,0-.31,0-.44Z"/>
    <path d="M535.66,21.17c-4.24.26-7.58,1.7-10.18,3.53-2.01-.98-4.38-1.41-7.02-1.23-5.94.41-8.91.63-14.84,1.08-.12,0-.24.01-.36.02-7.13.54-12.44,5.54-13.64,12.08-7.36-7.9-19.65-10.53-31.37-9.4-6.65.64-16.38,2.74-21.86,5.28v-.43h0v-.48h0v-.48h0v-.48h0v-.48h0v-.48h0v-.48h0v-.48h0v-.48h0v-.48h0v-.48h0v-.48h0v-.48h0v-.48h0v-.48h0v-.48h0v-.48h0v-.48h0v-.48c0-8.54-5.52-13.54-14.05-12.72-6.15.59-9.23.89-15.38,1.48-3.6.35-6.74,1.78-9.15,3.92-2.38-1.72-5.57-2.5-9.35-2.13-6.15.6-9.23.89-15.38,1.49-8.11.78-13.94,7.03-14.16,14.71,0,.23,0,.47,0,.71,0,.16,0,.32,0,.49,0,.16,0,.31,0,.48,0,.16,0,.31,0,.48,0,.16,0,.31,0,.48,0,.16,0,.31,0,.48,0,.16,0,.31,0,.48,0,.16,0,.31,0,.48,0,.16,0,.31,0,.48,0,.16,0,.31,0,.48,0,.16,0,.31,0,.48,0,.16,0,.31,0,.48,0,.16,0,.31,0,.48,0,.16,0,.31,0,.48,0,.16,0,.31,0,.48,0,.16,0,.31,0,.48,0,.16,0,.31,0,.48,0,.16,0,.31,0,.48,0,.16,0,.31,0,.48,0,.16,0,.31,0,.48,0,.16,0,.32,0,.48,0,.27,0,.55.01.84-6.15-2.93-13.17-4.22-19.83-3.46-9.09,1.04-17.5,4.97-24.25,10.81,0-.12,0-.24,0-.36,0-.16,0-.32,0-.48,0-.16,0-.32,0-.48.05-4.71-2.23-8.86-6.55-12.38-10.04-8.18-23.2-11.43-35.87-10.61-27.05,1.74-50.02,25.85-50.19,52.77,0,.1,0,.2,0,.3,0,.06,0,.12,0,.18,0,.1,0,.2,0,.3,0,.06,0,.12,0,.18,0,.1,0,.2,0,.3,0,.06,0,.12,0,.18,0,.1,0,.2,0,.3,0,.06,0,.12,0,.18,0,.1,0,.2,0,.3,0,.06,0,.12,0,.18,0,.1,0,.2,0,.3,0,.06,0,.12,0,.18,0,.1,0,.2,0,.3,0,.06,0,.12,0,.18,0,.1,0,.2,0,.3,0,.06,0,.12,0,.18,0,.1,0,.2,0,.3,0,.06,0,.12,0,.18,0,.1,0,.2,0,.3,0,.06,0,.12,0,.18,0,.1,0,.2,0,.3,0,.06,0,.12,0,.18,0,.1,0,.2,0,.3,0,.06,0,.12,0,.18,0,.1,0,.2,0,.3,0,.06,0,.12,0,.18,0,.1,0,.2,0,.3,0,.06,0,.12,0,.18,0,.1,0,.2,0,.3,0,.06,0,.12,0,.18,0,.1,0,.2,0,.3,0,.06,0,.12,0,.18,0,.1,0,.2,0,.3,0,.06,0,.12,0,.18,0,.1,0,.2,0,.3,0,.06,0,.12,0,.18,0,.1,0,.2,0,.3,0,.06,0,.12,0,.18,0,.1,0,.2,0,.3,0,.06,0,.12,0,.18,0,.1,0,.2,0,.3,0,.06,0,.12,0,.18-.08,12.51,4.98,25.05,13.89,33.97,9.57,9.59,23.13,14.17,36.62,13.19,13.1-1.27,26.73-7.75,35.49-17.9,7.57,8.54,19.1,13.43,31.62,12.22,8.12-.83,15.97-3.78,22.63-8.39,2.52,2.6,6.27,3.96,10.7,3.53,8.52-.82,12.78-1.23,21.29-2.06,2.31-.22,4.44-.9,6.31-1.92,1.86.66,3.97.93,6.27.7,8.52-.82,12.78-1.24,21.29-2.05,3.92-.37,7.31-2.02,9.8-4.49,4.67,2.61,10.12,3.91,15.69,3.41,6.83-.62,13.1-2.64,18.41-5.91,4.28,2.3,8.99,3.21,13.9,2.9.25-.02.51-.03.76-.05,3.86-.32,7.4-1.49,10.35-3.27,1.88.72,4.03,1.04,6.36.87,8.56-.65,12.84-.95,21.4-1.52,9.72-.64,14.81-7.83,14.81-14.66,0-.1,0-.21,0-.32,0-.05,0-.11,0-.16,0-.1,0-.21,0-.32,0-.05,0-.11,0-.16,0-.1,0-.21,0-.32,0-.05,0-.11,0-.16,0-.1,0-.21,0-.32,0-.05,0-.11,0-.16,0-.1,0-.21,0-.32,0-.05,0-.11,0-.16,0-.1,0-.21,0-.32,0-.05,0-.11,0-.16,0-.1,0-.21,0-.32,0-.05,0-.11,0-.16,0-.1,0-.21,0-.32,0-.05,0-.11,0-.16,0-.1,0-.21,0-.32,0-.05,0-.11,0-.16,0-.1,0-.21,0-.32,0-.05,0-.11,0-.16,0-.1,0-.21,0-.32,0-.05,0-.11,0-.16,0-.1,0-.21,0-.32,0-.05,0-.11,0-.16,0-.1,0-.21,0-.32,0-.05,0-.11,0-.16,0-.1,0-.21,0-.32,0-.05,0-.11,0-.16,0-.1,0-.21,0-.32,0-.05,0-.11,0-.16,0-.1,0-.21,0-.32,0-.05,0-.11,0-.16,0-.1,0-.21,0-.32,0-.05,0-.11,0-.16,0-.1,0-.21,0-.32,0-.05,0-.11,0-.16,0-.1,0-.21,0-.32,0-.05,0-.11,0-.16,0-.1,0-.21,0-.32,0-.05,0-.11,0-.16,0-.1,0-.21,0-.32,0-.05,0-.11,0-.16,0-3.41-1.23-8.04-6.88-11.27,0-.55,0-1.12,0-1.75.86.13,1.73.17,2.62.12,3.28-.2,9.41-1.94,13.55-11.43,1.86-4.27,2.97-9.37,2.97-13.67,0-.07,0-.14,0-.21,0-.09,0-.18,0-.27,0-.07,0-.14,0-.21,0-.09,0-.18,0-.27,0-.07,0-.14,0-.21,0-.09,0-.18,0-.27,0-.07,0-.14,0-.21,0-.09,0-.18,0-.27,0-.07,0-.14,0-.21,0-.09,0-.18,0-.27,0-.07,0-.14,0-.21,0-.09,0-.18,0-.27,0-.07,0-.14,0-.21,0-.09,0-.18,0-.27,0-.07,0-.14,0-.21,0-.09,0-.18,0-.27,0-.07,0-.14,0-.21,0-.09,0-.18,0-.27,0-.07,0-.14,0-.21,0-.09,0-.18,0-.27,0-.07,0-.14,0-.21,0-.09,0-.18,0-.27,0-.07,0-.14,0-.21,0-.09,0-.18,0-.27,0-.07,0-.14,0-.21,0-.09,0-.18,0-.27,0-.07,0-.14,0-.21,0-.09,0-.18,0-.27,0-.07,0-.14,0-.21,0-.09,0-.18,0-.27,0-.07,0-.14,0-.21,0-.09,0-.18,0-.27,0-.07,0-.14,0-.21,0-.09,0-.18,0-.27,0-.07,0-.14,0-.21,0-.09,0-.18,0-.27,0-.07,0-.14,0-.21,0-.09,0-.18,0-.27,0-.07,0-.14,0-.21,0-.09,0-.18,0-.27,0-.07,0-.14,0-.21,0-.09,0-.18,0-.27,0-10.46-6.6-17.17-16.42-16.57ZM279.19,88.56c-8.94.25-14.09-8.89-15.65-17.44.79-3.39,2.5-6.13,5.11-6.31,1.6-.11,4.24-.2,9.46,9.27,2.8,5.08,7.47,7.95,12.95,7.53.56-.04,1.12-.13,1.69-.24-4.91,4.5-9.53,7.08-13.56,7.19Z"/>
  </g>
  <g>
    <path class="cls-1" d="M12.49,93.83c-5.59-5.78-3.98-8.86,1.4-13.41,2.8-2.31,5.16-4.39,7.42-4.02,1.83.3,3.23,2.14,4.84,5.19,4.73,8.38,10.54,14.84,17.31,15.74,6.24.83,10.75-2.72,10.75-8.21,0-6.02-5.07-10.45-16.35-14.07-13.18-4.24-27.81-12.89-27.64-28.08.18-16.05,18.35-22.49,32.26-20.43,8.92,1.32,20.96,5.83,27.75,12.18,5.72,5.35,4.52,8.52-.97,13.24-3.12,2.48-5.48,3.73-6.88,3.58-1.94-.21-3.44-1.89-4.73-4.3-4.95-8.85-9.79-13.43-15.7-14.23-5.27-.72-9.89,2.46-9.89,7.52,0,5.48,5.02,9.94,16.45,13.24,13.16,3.79,27.59,12.52,27.53,27.97-.06,17.13-18.75,24.5-33.34,22.13-10.83-1.76-22.42-5.98-30.22-14.04Z"/>
    <path class="cls-1" d="M78.73,91.58c.04-12.35,11.17-20.13,22.69-19.44,4.6.27,8.17,1.35,9.68,1.43,1.08.06,1.72-.45,1.72-1.63,0-4.73-3.76-8.69-8.71-8.99-5.16-.32-11.18,3.45-15.7,6.11-3.12,1.69-4.95.35-6.13-2.65-3.23-7.8-2.86-11.19,1.94-12.85,3.43-1.19,12.43-1.75,19.25-1.51,13.93.51,27.69,7.01,29.14,22.54,1.03,8.29,1.55,12.44,2.58,20.73.65,4.32,2.29,7.58,4.41,9.48,1.61,1.44,2.26,2.74,2.26,4.36,0,3.33-4.73,6.02-10.32,5.74-4.11-.21-8.17-1.69-12.04-5.2-1.18-1.13-2.04-1.06-3.33-.26-4.52,3.12-10.48,4.56-17.1,4.07-11.42-.84-20.37-10.26-20.33-21.91ZM115.94,94.25c-.39-2.64-.58-3.96-.97-6.61-.65-3.69-2.04-5.14-7.74-5.47-5.27-.3-8.71,3.65-8.71,8.38,0,5.27,3.44,11.1,9.14,11.43,6.02.35,8.93-3.08,8.28-7.74Z"/>
    <path class="cls-1" d="M143.79,109.41c0-1.61.76-3.03,2.9-4.35,2.54-1.57,3.12-3.28,3.12-7.91v-46.03c.11-4.51-.96-6.31-3.66-8.13-1.91-1.29-2.63-2.79-2.58-4.46.07-2.4,1.4-4.59,5.16-4.53,6.15.1,9.23.13,15.38.15,3.12,0,5.05,1.19,5.05,5.06v57.97c-.11,4.62.66,6.42,3.12,7.95,2.23,1.38,3.01,2.78,3.01,4.5,0,2.47-1.51,4.75-5.16,4.76-8.52.02-12.78,0-21.29-.15-3.66-.06-5.05-2.35-5.05-4.83Z"/>
    <path class="cls-1" d="M178.64,101.42c0-4.84.76-10.87,1.72-17.33,1.08-7.21,1.94-12.82,1.94-15.83s-.68-3.82-5.16-3.93c-2.67-.06-3.55-1.37-3.55-4.6,0-1.94.82-3.53,3.44-4.86,2.67-1.35,5.81-3.31,7.74-5.46,2.65-2.94,4.29-5.59,5.81-7.95,1.26-1.95,2.9-3.07,4.84-3.11,2.58-.06,3.76,1.2,3.76,3.67v9.89c0,2.15.32,2.68,2.8,2.62,1.81-.05,2.71-.08,4.52-.13,2.9-.09,3.77,1.16,3.76,4.83,0,3.87-.97,5.52-3.76,5.6-1.59.05-2.39.07-3.98.12-3.01.08-3.44.41-3.44,3.96-.04,9.64-.07,19.29-.11,28.93,0,3.76.66,4.65,5.59,5.98,3.63.98,5.38,1.88,5.38,5.21,0,3.01-1.72,4.68-4.3,4.76-5.16.15-7.74.22-12.91.32-10.22.21-14.09-3.55-14.09-12.7Z"/>
    <path class="cls-1" d="M231.22,73.77c-.04-22.93,18.78-41.58,41.19-43.37,10.71-.86,21.52,1.8,29.9,8.83,6.02,4.78,4.52,9.65-5.81,17.78-4.19,3.34-8.07,3.85-10.43-.71-5.81-10.21-10.54-13.96-17.42-13.5-8.71.58-14.76,9.23-14.63,20.28.16,13.16,8.72,32.94,25.17,31.47,6.43-.58,13.01-3.86,19.47-9.86,1.94-1.77,3.49-2,6.13.15,2.47,2.01,2.69,4.51,0,8.71-6.97,10.91-19.25,17.77-32.05,18.77-22.48,1.75-41.47-16.04-41.51-38.55Z"/>
    <path class="cls-1" d="M308.11,78.34c.11-16.52,14.44-33.11,30.97-34.43,12.32-.98,29.22,6.82,28.93,21.6-.09,4.74-2.9,8.02-8.5,9.84-4.22,1.26-6.32,1.89-10.54,3.14-5.38,1.58-10.65,3.56-13.55,5.54-.75.39-1.29.76-1.29,1.62,0,1.18,1.08,2.27,2.69,3.09,2.47,1.71,5.81,2.48,8.93,2.19,5.05-.47,10.11-2.98,15.38-8.11,2.37-2.05,3.98-1.84,6.13.49,2,2.17,2.04,4,.21,6.86-6.14,9.35-16.6,15.37-27.64,16.46-16.23,1.6-31.84-11.85-31.73-28.31ZM332.09,74.77c2.47-2.37,6.24-4.65,11.61-6.97,1.94-.93,3.33-1.6,3.33-3.32,0-3.44-4.95-8.68-10.65-8.17-5.38.49-9.79,5.18-9.79,12.38,0,3.87.97,8.09,2.9,7.92.54-.05,1.4-.98,2.58-1.84Z"/>
    <path class="cls-1" d="M368.12,97.55c0-1.61.76-3.11,2.9-4.69,2.55-1.87,3.12-3.63,3.12-8.26v-46.03c.11-4.53-.97-6.21-3.66-7.71-1.89-1.06-2.63-2.48-2.58-4.16.07-2.4,1.4-4.76,5.16-5.12,6.15-.59,9.23-.89,15.38-1.49,3.12-.3,5.05.69,5.05,4.56v57.97c-.11,4.63.66,6.36,3.12,7.66,2.22,1.17,3.01,2.5,3.01,4.22,0,2.47-1.51,4.88-5.16,5.23-8.52.83-12.78,1.24-21.29,2.06-3.66.35-5.05-1.77-5.05-4.25Z"/>
    <path class="cls-1" d="M401.99,94.28c0-1.61.76-3.11,2.9-4.69,2.54-1.87,3.12-3.64,3.12-8.26v-46.03c.11-4.53-.97-6.21-3.66-7.71-1.89-1.06-2.63-2.48-2.58-4.16.07-2.4,1.4-4.76,5.16-5.12,6.15-.6,9.23-.89,15.38-1.48,3.12-.3,5.05.7,5.05,4.57v57.97c-.11,4.63.66,6.36,3.12,7.66,2.22,1.18,3.01,2.51,3.01,4.23,0,2.47-1.5,4.87-5.16,5.22-8.52.81-12.78,1.22-21.29,2.05-3.66.35-5.05-1.77-5.05-4.24Z"/>
    <path class="cls-1" d="M433.5,76.95c.45-12.47,10.85-21.93,22.69-23.29,4.5-.52,8.17.13,9.68,0,1.08-.09,1.72-.69,1.72-1.87,0-4.73-3.76-8.17-8.71-7.72-5.16.46-11.18,5.21-15.7,8.64-3.12,2.23-4.95,1.21-6.13-1.58-3.23-7.22-2.86-10.68,1.94-13.19,3.43-1.8,12.31-4.01,19.25-4.67,12.97-1.24,28.72,2.77,29.14,18.68,1.03,8.18,1.55,12.26,2.58,20.44.64,4.25,2.3,7.34,4.41,9,1.6,1.27,2.26,2.51,2.26,4.12,0,3.33-4.74,6.5-10.32,6.85-4.12.26-8.17-.72-12.04-3.72-1.18-.97-2.04-.79-3.33.18-4.52,3.73-10.44,5.96-17.1,6.57-11.09,1.02-20.74-7.13-20.33-18.44ZM470.71,73.67c-.39-2.59-.58-3.89-.97-6.48-.65-3.6-2.04-4.88-7.74-4.37-5.27.47-8.71,4.98-8.71,9.71,0,5.27,3.44,10.55,9.14,10.04,6.02-.54,8.93-4.33,8.28-8.9Z"/>
    <path class="cls-1" d="M498.56,85.57c0-1.61.76-3.1,2.9-4.63,2.54-1.82,3.12-3.57,3.12-8.19v-25.16c.11-4.53-1.02-6.32-3.66-7.79-1.88-1.05-2.63-2.64-2.58-4.21.08-2.39,1.4-4.84,5.16-5.02,5.98-.45,8.97-.67,14.95-1.08,2.58-.18,3.98.7,4.62,3.13.22.72.32,1.08.54,1.79.32,1.27,1.51,1.3,2.15.07,2.8-4.92,5.59-7.03,9.89-7.29,4.84-.29,7.42,2.68,7.42,8.06,0,6.02-3.33,15.35-7.53,15.61-1.18.07-2.26-.54-3.23-1.31-1.25-1-2.58-1.34-3.98-1.25-2.47.16-4.41,2.01-4.41,5.34v17.53c-.11,4.63.67,6.47,3.44,7.84,2.53,1.25,3.44,2.58,3.44,4.3,0,2.47-1.72,4.84-5.81,5.11-8.56.57-12.84.87-21.4,1.52-3.66.28-5.05-1.87-5.05-4.34Z"/>
    <path class="cls-1" d="M565.13,81.33c0-1.83.65-3.26,2.9-4.64,3.22-1.97,3.98-3.82,3.87-8.55,0-14.45,0-28.89,0-43.34.11-4.74-.96-6.5-4.09-8.22-2.24-1.23-2.85-2.72-2.8-4.5.07-2.5,1.51-4.91,5.27-4.96,7.01-.29,10.52-.41,17.53-.61,3.87-.11,5.92,1.45,7.53,4.54,4.35,8.3,8.69,16.61,13.01,24.93.75,1.6,1.72,1.38,2.47-.14,4.95-9.69,7.42-14.53,12.37-24.17,2.58-4.95,5.16-5.71,10.75-5.66,6.02.05,9.03.09,15.06.22,3.76.08,5.16,2.38,5.16,4.96,0,1.83-.65,3.21-2.9,4.44-3.22,1.75-3.98,3.57-3.87,8.3v43.34c-.11,4.73.75,6.57,3.98,8.58,2.26,1.35,2.94,2.8,2.9,4.59-.05,2.53-1.61,4.79-5.48,4.6-9.38-.2-14.07-.25-23.45-.26-4.41,0-6.24-2.25-6.24-4.93,0-1.83.76-3.23,3.44-4.53,3.76-1.82,4.52-3.76,4.52-8.5-.04-11.14-.06-16.71-.11-27.85,0-1.94-1.61-2.26-2.47-.65-5.03,8.86-7.55,13.31-12.58,22.22-1.51,2.49-3.33,3.91-6.02,3.95-3.12.05-4.84-1.75-7.1-5.79-4.39-8.08-6.58-12.11-10.97-20.16-.75-1.27-2.26-.9-2.26.6.07,9.39.14,18.78.21,28.17,0,4.84.97,6.75,4.73,8.47,2.68,1.22,3.48,2.75,3.44,4.54-.05,2.53-1.94,4.99-6.34,5.01-6.88.2-10.32.32-17.21.6-3.76.15-5.27-2.04-5.27-4.62Z"/>
    <path class="cls-1" d="M654.6,66.16c.11-12.34,10.98-20.81,22.69-20.32,4.59.2,8.17,1.3,9.68,1.39,1.07.06,1.72-.43,1.72-1.62,0-4.73-3.76-8.73-8.71-8.99-5.16-.27-11.18,3.66-15.7,6.51-3.12,1.82-4.95.58-6.13-2.36-3.23-7.63-2.86-11.05,1.94-12.95,3.43-1.36,12.44-2.27,19.25-2.09,14.17.37,27.67,7.69,29.14,23.16,1.03,8.35,1.55,12.52,2.58,20.87.64,4.36,2.29,7.71,4.41,9.75,1.61,1.55,2.26,2.9,2.26,4.51,0,3.33-4.72,5.67-10.32,5.1-4.11-.42-8.17-2.05-12.04-5.65-1.18-1.16-2.04-1.11-3.33-.33-4.52,3.04-10.46,4.43-17.1,4.09-11.3-.58-20.43-9.46-20.33-21.08ZM691.81,67.97c-.39-2.65-.58-3.97-.97-6.62-.65-3.7-2.04-5.2-7.74-5.52-5.27-.3-8.71,3.75-8.71,8.48,0,5.27,3.44,11.01,9.14,11.33,6.02.34,8.93-3,8.28-7.67Z"/>
    <path class="cls-1" d="M715.79,104.06c0-1.72.69-3.05,2.9-4.24,2.46-1.33,3.12-3.03,3.12-7.65v-45.06c0-4.52-1.01-6.49-3.66-8.42-1.91-1.4-2.63-3.1-2.58-4.65.08-2.39,1.4-4.61,5.05-4.14,5.81.57,8.71.88,14.52,1.56,3.33.39,4.3,1.91,5.27,6.12.43,1.67,1.72,2.15,2.8.56,3.01-4.24,8.65-6.21,14.09-5.29,14.52,2.47,25.8,17.49,25.7,32.37-.12,17.06-14.5,31.59-32.05,28.68-2.29-.38-4.73-1.06-6.24-1.69-.86-.33-1.51-.73-1.94-.78-.97-.12-1.5.46-1.5,1.96v1.61c-.11,4.4.69,6.2,3.44,8.07,2.47,1.68,3.33,3.12,3.33,4.74,0,2.37-1.61,4.29-5.7,3.78-8.6-1.08-12.91-1.56-21.51-2.41-3.66-.36-5.05-2.74-5.05-5.11ZM762.79,69.04c0-10.65-5.92-20.06-13.55-21.09-4.73-.64-7.96,2.09-7.96,6.5v17.42c0,6.13,3.44,9.34,9.36,10.15,6.88.94,12.15-4.05,12.15-12.98Z"/>
  </g>
</svg>